<svg width="1200" height="840" viewBox="0 0 1200 840" fill="none" xmlns="http://www.w3.org/2000/svg">
<rect width="1200" height="840" rx="42" fill="#0B1220"/>
<rect x="44" y="44" width="1112" height="752" rx="30" fill="#121C2E"/>
<rect x="84" y="88" width="1032" height="90" rx="18" fill="#222B3D"/>
<text x="124" y="142" font-family="Inter, Arial" font-size="30" font-weight="800" fill="white">RecordShield private dashboard</text>
<rect x="84" y="214" width="612" height="248" rx="24" fill="#FFFFFF"/>
<text x="124" y="272" font-family="Inter, Arial" font-size="24" font-weight="800" fill="#101827">Background check status</text>
<rect x="124" y="316" width="500" height="18" rx="9" fill="#E2E8F0"/>
<rect x="124" y="316" width="308" height="18" rx="9" fill="#FF4D1D"/>
<rect x="124" y="374" width="214" height="52" rx="26" fill="#EAF6F5"/>
<text x="153" y="407" font-family="Inter, Arial" font-size="20" font-weight="700" fill="#0B1220">Review pending</text>
<rect x="736" y="214" width="380" height="248" rx="24" fill="#EAF6F5"/>
<text x="776" y="272" font-family="Inter, Arial" font-size="24" font-weight="800" fill="#101827">Plain-English summary</text>
<path d="M779 328H1068M779 374H1032M779 420H965" stroke="#667085" stroke-width="18" stroke-linecap="round" opacity=".45"/>
<rect x="84" y="502" width="1032" height="218" rx="24" fill="#FFFFFF"/>
<text x="124" y="562" font-family="Inter, Arial" font-size="24" font-weight="800" fill="#101827">What to do next</text>
<rect x="124" y="602" width="284" height="72" rx="18" fill="#0E4F8A"/>
<text x="158" y="647" font-family="Inter, Arial" font-size="22" font-weight="800" fill="white">Ask Wilma</text>
<rect x="436" y="602" width="284" height="72" rx="18" fill="#F6F1E8"/>
<text x="470" y="647" font-family="Inter, Arial" font-size="22" font-weight="800" fill="#101827">View results</text>
<rect x="748" y="602" width="284" height="72" rx="18" fill="#F6F1E8"/>
<text x="782" y="647" font-family="Inter, Arial" font-size="22" font-weight="800" fill="#101827">Get help</text>
</svg>